<?xml version="1.0" encoding="UTF-8" standalone="no"?>
<!-- Created with Inkscape (http://www.inkscape.org/) -->

<svg
   xmlns:dc="http://purl.org/dc/elements/1.1/"
   xmlns:cc="http://creativecommons.org/ns#"
   xmlns:rdf="http://www.w3.org/1999/02/22-rdf-syntax-ns#"
   xmlns:svg="http://www.w3.org/2000/svg"
   xmlns="http://www.w3.org/2000/svg"
   xmlns:sodipodi="http://sodipodi.sourceforge.net/DTD/sodipodi-0.dtd"
   xmlns:inkscape="http://www.inkscape.org/namespaces/inkscape"
   width="1920"
   height="1280"
   viewBox="0 0 507.99999 338.66668"
   version="1.1"
   id="svg8"
   inkscape:export-filename="/home/xx/桌面/设计稿/位图1.png"
   inkscape:export-xdpi="135.7"
   inkscape:export-ydpi="135.7"
   inkscape:version="0.92.4 (5da689c313, 2019-01-14)"
   sodipodi:docname="绘图-1.svg">
  <defs
     id="defs2" />
  <sodipodi:namedview
     id="base"
     pagecolor="#ffffff"
     bordercolor="#666666"
     borderopacity="1.0"
     inkscape:pageopacity="0.0"
     inkscape:pageshadow="2"
     inkscape:zoom="0.35"
     inkscape:cx="812.16807"
     inkscape:cy="671.03487"
     inkscape:document-units="mm"
     inkscape:current-layer="layer2"
     showgrid="false"
     units="px"
     inkscape:snap-bbox="true"
     inkscape:bbox-paths="true"
     inkscape:bbox-nodes="true"
     inkscape:window-width="1440"
     inkscape:window-height="835"
     inkscape:window-x="0"
     inkscape:window-y="0"
     inkscape:window-maximized="1" />
  <metadata
     id="metadata5">
    <rdf:RDF>
      <cc:Work
         rdf:about="">
        <dc:format>image/svg+xml</dc:format>
        <dc:type
           rdf:resource="http://purl.org/dc/dcmitype/StillImage" />
        <dc:title />
      </cc:Work>
    </rdf:RDF>
  </metadata>
  <g
     inkscape:groupmode="layer"
     id="layer2"
     inkscape:label="Layer 2">
    <rect
       style="opacity:1;fill:#4e97b9;fill-opacity:1;fill-rule:nonzero;stroke:none;stroke-width:0.56233925;stroke-linejoin:miter;stroke-miterlimit:4;stroke-dasharray:none;stroke-dashoffset:0;stroke-opacity:1;paint-order:normal"
       id="rect833"
       width="507.43765"
       height="338.10434"
       x="0.28116962"
       y="0.28117383" />
  </g>
  <g
     inkscape:label="Layer 1"
     inkscape:groupmode="layer"
     id="layer1"
     transform="translate(0,41.666683)">
    <path
       inkscape:connector-curvature="0"
       id="path823"
       style="font-style:normal;font-variant:normal;font-weight:normal;font-stretch:normal;font-size:192px;line-height:1.25;font-family:'Noto Sans SC';-inkscape-font-specification:'Noto Sans SC, Normal';font-variant-ligatures:normal;font-variant-caps:normal;font-variant-numeric:normal;font-feature-settings:normal;text-align:start;letter-spacing:0px;word-spacing:0px;writing-mode:lr-tb;text-anchor:start;fill:#20323b;fill-opacity:1;stroke:#215c2d;stroke-width:5.69299984;stroke-miterlimit:4;stroke-dasharray:none;stroke-opacity:1"
       d="m 247.19466,210.27903 c 30.0241,0 58.11117,-22.03382 58.11117,-61.01674 0,-38.98291 -23.97086,-56.416263 -53.51071,-56.416263 -10.65371,0 -18.644,2.66343 -26.39215,7.02177 l 4.35833,-51.331542 h 67.06998 V 29.650124 h -86.44037 l -5.56899,83.050556 11.86437,7.2639 c 10.16946,-6.77964 17.67548,-10.41159 29.53985,-10.41159 22.27595,0 36.80374,15.01206 36.80374,40.43569 0,25.9079 -16.94909,41.88848 -37.77226,41.88848 -20.58104,0 -33.41393,-9.44307 -43.58338,-19.61253 l -10.89585,14.5278 c 11.86437,11.86436 28.81346,23.4866 56.41627,23.4866 z" />
    <path
       sodipodi:nodetypes="cccccsscccccccccccsc"
       d="m 283.02987,149.98868 c 0,21.34459 -11.50422,35.95097 -27.20113,40.43421 m -42.50105,-8.27194 c -4.2219,-2.89286 -7.94869,-6.20375 -11.37142,-9.60515 m 4.76127,26.9852 c 10.26487,6.25291 23.31073,10.74803 40.47711,10.74803 3.50292,0 6.97949,-0.29993 10.38815,-0.8917 m 47.72302,-60.12504 c 0,-38.98291 -23.97086,-56.416263 -53.5107,-56.416263 m -22.60078,-37.317212 0.56696,-6.99256 h 67.06998 V 29.650124 h -14.81667 m -52.30644,0.133635 -19.31726,-0.133635 -5.56946,83.050556 11.86483,7.2639 c 10.16946,-6.77964 17.67548,-10.41159 29.53985,-10.41159 2.02274,0 3.98161,0.12372 5.8715,0.3679"
       style="font-style:normal;font-variant:normal;font-weight:normal;font-stretch:normal;font-size:192px;line-height:1.25;font-family:'Noto Sans SC';-inkscape-font-specification:'Noto Sans SC, Normal';font-variant-ligatures:normal;font-variant-caps:normal;font-variant-numeric:normal;font-feature-settings:normal;text-align:start;letter-spacing:0px;word-spacing:0px;writing-mode:lr-tb;text-anchor:start;fill:none;fill-opacity:1;stroke:#d75e38;stroke-width:5.69299984;stroke-linecap:round;stroke-linejoin:miter;stroke-miterlimit:4;stroke-dasharray:none;stroke-opacity:1"
       id="path826"
       inkscape:connector-curvature="0" />
  </g>
</svg>
