<?xml version="1.0" encoding="UTF-8" standalone="no"?>
<!-- Created with Inkscape (http://www.inkscape.org/) -->

<svg
   xmlns:dc="http://purl.org/dc/elements/1.1/"
   xmlns:cc="http://creativecommons.org/ns#"
   xmlns:rdf="http://www.w3.org/1999/02/22-rdf-syntax-ns#"
   xmlns:svg="http://www.w3.org/2000/svg"
   xmlns="http://www.w3.org/2000/svg"
   xmlns:sodipodi="http://sodipodi.sourceforge.net/DTD/sodipodi-0.dtd"
   xmlns:inkscape="http://www.inkscape.org/namespaces/inkscape"
   width="210mm"
   height="297mm"
   viewBox="0 0 210 297"
   version="1.1"
   id="svg8"
   inkscape:export-filename="/home/xx/桌面/设计稿/位图2.png"
   inkscape:export-xdpi="135.7"
   inkscape:export-ydpi="135.7"
   inkscape:version="0.92.4 (5da689c313, 2019-01-14)"
   sodipodi:docname="绘图-2.svg">
  <defs
     id="defs2" />
  <sodipodi:namedview
     id="base"
     pagecolor="#ffffff"
     bordercolor="#666666"
     borderopacity="1.0"
     inkscape:pageopacity="1"
     inkscape:pageshadow="2"
     inkscape:zoom="0.7"
     inkscape:cx="252.93265"
     inkscape:cy="728.02661"
     inkscape:document-units="mm"
     inkscape:current-layer="layer1"
     showgrid="false"
     inkscape:window-width="1440"
     inkscape:window-height="835"
     inkscape:window-x="0"
     inkscape:window-y="0"
     inkscape:window-maximized="1" />
  <metadata
     id="metadata5">
    <rdf:RDF>
      <cc:Work
         rdf:about="">
        <dc:format>image/svg+xml</dc:format>
        <dc:type
           rdf:resource="http://purl.org/dc/dcmitype/StillImage" />
        <dc:title></dc:title>
      </cc:Work>
    </rdf:RDF>
  </metadata>
  <g
     inkscape:label="Layer 1"
     inkscape:groupmode="layer"
     id="layer1">
    <path
       inkscape:connector-curvature="0"
       id="path823"
       style="font-style:normal;font-variant:normal;font-weight:normal;font-stretch:normal;font-size:74.66666412px;line-height:1.25;font-family:'Noto Sans SC';-inkscape-font-specification:'Noto Sans SC, Normal';font-variant-ligatures:normal;font-variant-caps:normal;font-variant-numeric:normal;font-feature-settings:normal;text-align:start;letter-spacing:0px;word-spacing:0px;writing-mode:lr-tb;text-anchor:start;fill:#c7e0e6;fill-opacity:1;stroke:#000000;stroke-width:1.00899994;stroke-miterlimit:4;stroke-dasharray:none;stroke-opacity:1"
       d="m 40.544114,61.686278 c -5.289184,0 -8.451197,-4.771762 -9.083599,-13.51042 2.759574,-3.909393 5.979078,-5.404161 8.623669,-5.404161 5.116712,0 7.58883,3.621941 7.58883,9.313564 0,5.749108 -3.104521,9.601017 -7.1289,9.601017 z M 51.869867,26.386725 c -2.299646,-2.472122 -5.461658,-4.311839 -9.830984,-4.311839 -8.163741,0 -15.580097,6.324025 -15.580097,22.823978 0,13.912859 5.979077,20.869281 14.085328,20.869281 6.553988,0 12.073137,-5.519148 12.073137,-13.682884 0,-8.796144 -4.541799,-13.222966 -11.6707,-13.222966 -3.334485,0 -7.013919,1.954701 -9.601019,5.116716 0.229964,-13.107979 5.116711,-17.534801 10.865824,-17.534801 2.587102,0 5.116711,1.207314 6.783954,3.219509 z" />
    <path
       inkscape:connector-curvature="0"
       id="path825"
       style="font-style:normal;font-variant:normal;font-weight:normal;font-stretch:normal;font-size:74.66666412px;line-height:1.25;font-family:'Noto Sans SC';-inkscape-font-specification:'Noto Sans SC, Normal';font-variant-ligatures:normal;font-variant-caps:normal;font-variant-numeric:normal;font-feature-settings:normal;text-align:start;letter-spacing:0px;word-spacing:0px;writing-mode:lr-tb;text-anchor:start;fill:#c7e0e6;fill-opacity:1;stroke:#000000;stroke-width:1.00899994;stroke-miterlimit:4;stroke-dasharray:none;stroke-opacity:1"
       d="m 63.12016,65.768145 c 2.069681,0 3.794415,-1.609754 3.794415,-3.966888 0,-2.357134 -1.724734,-4.081868 -3.794415,-4.081868 -2.069681,0 -3.794414,1.724734 -3.794414,4.081868 0,2.357134 1.724733,3.966888 3.794414,3.966888 z" />
    <path
       inkscape:connector-curvature="0"
       id="path827"
       style="font-style:normal;font-variant:normal;font-weight:normal;font-stretch:normal;font-size:74.66666412px;line-height:1.25;font-family:'Noto Sans SC';-inkscape-font-specification:'Noto Sans SC, Normal';font-variant-ligatures:normal;font-variant-caps:normal;font-variant-numeric:normal;font-feature-settings:normal;text-align:start;letter-spacing:0px;word-spacing:0px;writing-mode:lr-tb;text-anchor:start;fill:#c7e0e6;fill-opacity:1;stroke:#000000;stroke-width:1.00899994;stroke-miterlimit:4;stroke-dasharray:none;stroke-opacity:1"
       d="m 98.100505,65.020758 h 5.461665 c 0.6324,-16.499952 2.47213,-26.273443 12.36066,-38.978981 V 22.879763 H 89.534315 v 4.484308 H 109.94372 C 101.72245,38.862295 98.790395,49.038225 98.100505,65.020758 Z" />
    <path
       inkscape:connector-curvature="0"
       id="path829"
       style="font-style:normal;font-variant:normal;font-weight:normal;font-stretch:normal;font-size:74.66666412px;line-height:1.25;font-family:'Noto Sans SC';-inkscape-font-specification:'Noto Sans SC, Normal';font-variant-ligatures:normal;font-variant-caps:normal;font-variant-numeric:normal;font-feature-settings:normal;text-align:start;letter-spacing:0px;word-spacing:0px;writing-mode:lr-tb;text-anchor:start;fill:#c7e0e6;fill-opacity:1;stroke:#000000;stroke-width:1.00899994;stroke-miterlimit:4;stroke-dasharray:none;stroke-opacity:1"
       d="m 138.21143,63.847444 c -3.56445,-4.196847 -8.73866,-9.428543 -12.87802,-12.763032 l -3.73693,3.276996 c 4.08188,3.334488 9.02611,8.221237 12.70555,12.820524 z" />
    <path
       inkscape:connector-curvature="0"
       id="path831"
       style="font-style:normal;font-variant:normal;font-weight:normal;font-stretch:normal;font-size:74.66666412px;line-height:1.25;font-family:'Noto Sans SC';-inkscape-font-specification:'Noto Sans SC, Normal';font-variant-ligatures:normal;font-variant-caps:normal;font-variant-numeric:normal;font-feature-settings:normal;text-align:start;letter-spacing:0px;word-spacing:0px;writing-mode:lr-tb;text-anchor:start;fill:#c7e0e6;fill-opacity:1;stroke:#000000;stroke-width:1.00899994;stroke-miterlimit:4;stroke-dasharray:none;stroke-opacity:1"
       d="m 176.49446,65.768145 c 7.93378,0 13.22296,-4.771761 13.22296,-10.92331 0,-5.749115 -3.44946,-8.911131 -7.12888,-11.038297 v -0.287462 c 2.52959,-1.954693 5.63412,-5.749108 5.63412,-10.17593 0,-6.496495 -4.36933,-11.095786 -11.55572,-11.095786 -6.61148,0 -11.55572,4.254343 -11.55572,10.693353 0,4.426814 2.5871,7.58883 5.69163,9.715997 v 0.287461 c -3.85191,2.069681 -7.76131,5.979074 -7.76131,11.613204 0,6.496502 5.69163,11.21077 13.45292,11.21077 z m 2.87456,-23.628855 c -4.94424,-1.954694 -9.48604,-4.139362 -9.48604,-9.198577 0,-4.081876 2.81707,-6.84145 6.66898,-6.84145 4.54179,0 7.18639,3.391983 7.18639,7.531344 0,3.104521 -1.49477,5.979075 -4.36933,8.508683 z m -2.75957,19.719461 c -5.05922,0 -8.79615,-3.276995 -8.79615,-7.761303 0,-4.024382 2.35714,-7.358862 5.74912,-9.543531 5.97907,2.414628 11.15328,4.541803 11.15328,10.175931 0,4.196855 -3.277,7.128903 -8.10625,7.128903 z" />
    <path
       d="m 40.544114,61.686282 c -5.289184,0 -8.451197,-4.771766 -9.083599,-13.510424 2.759574,-3.909393 5.979078,-5.404161 8.623669,-5.404161 5.116712,0 7.58883,3.621941 7.58883,9.313564 0,5.749108 -3.104521,9.601021 -7.1289,9.601021 z M 51.869867,26.386725 c -2.299646,-2.472122 -5.461658,-4.311839 -9.830984,-4.311839 -8.163741,0 -15.580097,6.324025 -15.580097,22.823978 0,13.912859 5.979077,20.869308 14.085328,20.869308 6.553988,0 12.073137,-5.519175 12.073137,-13.682911 0,-8.796144 -4.541799,-13.222966 -11.6707,-13.222966 -3.334485,0 -7.013919,1.954701 -9.601019,5.116716 0.229964,-13.107979 5.116711,-17.534801 10.865824,-17.534801 2.587102,0 5.116711,1.207314 6.783954,3.219509 z"
       style="font-style:normal;font-variant:normal;font-weight:normal;font-stretch:normal;font-size:74.66666412px;line-height:1.25;font-family:'Noto Sans SC';-inkscape-font-specification:'Noto Sans SC, Normal';font-variant-ligatures:normal;font-variant-caps:normal;font-variant-numeric:normal;font-feature-settings:normal;text-align:start;letter-spacing:0px;word-spacing:0px;writing-mode:lr-tb;text-anchor:start;fill:#c7e0e6;fill-opacity:1;stroke:#ff0101;stroke-width:1.00899994;stroke-miterlimit:4;stroke-dasharray:8.07199952, 8.07199952;stroke-dashoffset:4.74229956;stroke-opacity:1"
       id="path849"
       inkscape:connector-curvature="0" />
    <path
       d="m 63.12016,65.768172 c 2.069681,0 3.794415,-1.60976 3.794415,-3.96691 0,-2.357139 -1.724734,-4.081873 -3.794415,-4.081873 -2.069681,0 -3.794414,1.724734 -3.794414,4.081873 0,2.35715 1.724733,3.96691 3.794414,3.96691 z"
       style="font-style:normal;font-variant:normal;font-weight:normal;font-stretch:normal;font-size:74.66666412px;line-height:1.25;font-family:'Noto Sans SC';-inkscape-font-specification:'Noto Sans SC, Normal';font-variant-ligatures:normal;font-variant-caps:normal;font-variant-numeric:normal;font-feature-settings:normal;text-align:start;letter-spacing:0px;word-spacing:0px;writing-mode:lr-tb;text-anchor:start;fill:#c7e0e6;fill-opacity:1;stroke:#ff0101;stroke-width:1.00899994;stroke-miterlimit:4;stroke-dasharray:8.07199952, 8.07199952;stroke-dashoffset:4.74229956;stroke-opacity:1"
       id="path851"
       inkscape:connector-curvature="0" />
    <path
       d="m 98.100505,65.020782 h 5.461665 c 0.6324,-16.499976 2.47213,-26.273467 12.36066,-38.979005 V 22.879763 H 89.534315 v 4.484308 H 109.94372 C 101.72245,38.862295 98.790395,49.038225 98.100505,65.020782 Z"
       style="font-style:normal;font-variant:normal;font-weight:normal;font-stretch:normal;font-size:74.66666412px;line-height:1.25;font-family:'Noto Sans SC';-inkscape-font-specification:'Noto Sans SC, Normal';font-variant-ligatures:normal;font-variant-caps:normal;font-variant-numeric:normal;font-feature-settings:normal;text-align:start;letter-spacing:0px;word-spacing:0px;writing-mode:lr-tb;text-anchor:start;fill:#c7e0e6;fill-opacity:1;stroke:#ff0101;stroke-width:1.00899994;stroke-miterlimit:4;stroke-dasharray:8.07199952, 8.07199952;stroke-dashoffset:4.74229956;stroke-opacity:1"
       id="path853"
       inkscape:connector-curvature="0" />
    <path
       d="m 138.21143,63.847468 c -3.56445,-4.196871 -8.73866,-9.428567 -12.87802,-12.763056 l -3.73693,3.276996 c 4.08188,3.334488 9.02611,8.22125 12.70555,12.82056 z"
       style="font-style:normal;font-variant:normal;font-weight:normal;font-stretch:normal;font-size:74.66666412px;line-height:1.25;font-family:'Noto Sans SC';-inkscape-font-specification:'Noto Sans SC, Normal';font-variant-ligatures:normal;font-variant-caps:normal;font-variant-numeric:normal;font-feature-settings:normal;text-align:start;letter-spacing:0px;word-spacing:0px;writing-mode:lr-tb;text-anchor:start;fill:#c7e0e6;fill-opacity:1;stroke:#ff0101;stroke-width:1.00899994;stroke-miterlimit:4;stroke-dasharray:8.07199952, 8.07199952;stroke-dashoffset:4.74229956;stroke-opacity:1"
       id="path855"
       inkscape:connector-curvature="0" />
    <path
       d="m 176.49446,65.768172 c 7.93378,0 13.22296,-4.77179 13.22296,-10.923337 0,-5.749115 -3.44946,-8.911131 -7.12888,-11.038297 v -0.287462 c 2.52959,-1.954693 5.63412,-5.749108 5.63412,-10.17593 0,-6.496495 -4.36933,-11.095786 -11.55572,-11.095786 -6.61148,0 -11.55572,4.254343 -11.55572,10.693353 0,4.426814 2.5871,7.58883 5.69163,9.715997 v 0.287461 c -3.85191,2.069681 -7.76131,5.979074 -7.76131,11.613204 0,6.496497 5.69163,11.210797 13.45292,11.210797 z m 2.87456,-23.628882 c -4.94424,-1.954694 -9.48604,-4.139362 -9.48604,-9.198577 0,-4.081876 2.81707,-6.84145 6.66898,-6.84145 4.54179,0 7.18639,3.391983 7.18639,7.531344 0,3.104521 -1.49477,5.979075 -4.36933,8.508683 z m -2.75957,19.719462 c -5.05922,0 -8.79615,-3.276996 -8.79615,-7.761304 0,-4.024382 2.35714,-7.358862 5.74912,-9.543531 5.97907,2.414628 11.15328,4.541803 11.15328,10.175931 0,4.196855 -3.277,7.128904 -8.10625,7.128904 z"
       style="font-style:normal;font-variant:normal;font-weight:normal;font-stretch:normal;font-size:74.66666412px;line-height:1.25;font-family:'Noto Sans SC';-inkscape-font-specification:'Noto Sans SC, Normal';font-variant-ligatures:normal;font-variant-caps:normal;font-variant-numeric:normal;font-feature-settings:normal;text-align:start;letter-spacing:0px;word-spacing:0px;writing-mode:lr-tb;text-anchor:start;fill:#c7e0e6;fill-opacity:1;stroke:#ff0101;stroke-width:1.00899994;stroke-miterlimit:4;stroke-dasharray:8.07199952, 8.07199952;stroke-dashoffset:4.74229956;stroke-opacity:1"
       id="path857"
       inkscape:connector-curvature="0" />
    <flowRoot
       xml:space="preserve"
       id="flowRoot859"
       style="font-style:normal;font-variant:normal;font-weight:normal;font-stretch:normal;font-size:10.66666698px;line-height:1.25;font-family:'Noto Sans SC';-inkscape-font-specification:'Noto Sans SC, Normal';font-variant-ligatures:normal;font-variant-caps:normal;font-variant-numeric:normal;font-feature-settings:normal;text-align:start;letter-spacing:0px;word-spacing:0px;writing-mode:lr-tb;text-anchor:start;fill:#000000;fill-opacity:1;stroke:none"
       transform="matrix(0.26458333,0,0,0.26458333,42.71131,14.741071)"><flowRegion
         id="flowRegion861"><rect
           id="rect863"
           width="611.42853"
           height="150"
           x="122.85714"
           y="309.66254" /></flowRegion><flowPara
         id="flowPara865"
         style="font-size:64px">高考加油！</flowPara></flowRoot>  </g>
</svg>
