<?xml version="1.0" encoding="UTF-8" standalone="no"?>
<!-- Created with Inkscape (http://www.inkscape.org/) -->

<svg
   xmlns:dc="http://purl.org/dc/elements/1.1/"
   xmlns:cc="http://creativecommons.org/ns#"
   xmlns:rdf="http://www.w3.org/1999/02/22-rdf-syntax-ns#"
   xmlns:svg="http://www.w3.org/2000/svg"
   xmlns="http://www.w3.org/2000/svg"
   xmlns:sodipodi="http://sodipodi.sourceforge.net/DTD/sodipodi-0.dtd"
   xmlns:inkscape="http://www.inkscape.org/namespaces/inkscape"
   width="297mm"
   height="210mm"
   viewBox="0 0 297 210"
   version="1.1"
   id="svg1436"
   inkscape:export-filename="/home/xx/位图119.png"
   inkscape:export-xdpi="135.7"
   inkscape:export-ydpi="135.7"
   inkscape:version="0.92.3 (unknown)"
   sodipodi:docname="绘图-4.svg">
  <defs
     id="defs1430" />
  <sodipodi:namedview
     id="base"
     pagecolor="#e55d22"
     bordercolor="#000000"
     borderopacity="1"
     inkscape:pageopacity="1"
     inkscape:pageshadow="2"
     inkscape:zoom="0.35355339"
     inkscape:cx="674.38479"
     inkscape:cy="583.98547"
     inkscape:document-units="mm"
     inkscape:current-layer="layer1"
     showgrid="false"
     inkscape:pagecheckerboard="false"
     inkscape:window-width="1440"
     inkscape:window-height="835"
     inkscape:window-x="0"
     inkscape:window-y="0"
     inkscape:window-maximized="1" />
  <metadata
     id="metadata1433">
    <rdf:RDF>
      <cc:Work
         rdf:about="">
        <dc:format>image/svg+xml</dc:format>
        <dc:type
           rdf:resource="http://purl.org/dc/dcmitype/StillImage" />
        <dc:title></dc:title>
      </cc:Work>
    </rdf:RDF>
  </metadata>
  <g
     inkscape:label="Layer 1"
     inkscape:groupmode="layer"
     id="layer1"
     transform="translate(0,-87)">
    <circle
       r="46.189747"
       cy="117.06991"
       cx="34.006737"
       id="circle3326"
       style="display:inline;fill:#c8ab37;fill-opacity:1;stroke:none;stroke-width:5.81002188;stroke-miterlimit:4;stroke-dasharray:11.6200424, 5.81002119;stroke-dashoffset:2.18548346;stroke-opacity:1" />
    <circle
       style="opacity:1;fill:#000000;fill-opacity:1;stroke:none;stroke-width:0.2;stroke-linecap:round;stroke-linejoin:miter;stroke-miterlimit:4;stroke-dasharray:none;stroke-dashoffset:0;stroke-opacity:1;paint-order:normal"
       id="path1996"
       cx="33.71769"
       cy="147.09497"
       r="5.5751486" />
    <circle
       style="opacity:1;fill:#000000;fill-opacity:1;stroke:none;stroke-width:0.2;stroke-linecap:round;stroke-linejoin:miter;stroke-miterlimit:4;stroke-dasharray:none;stroke-dashoffset:0;stroke-opacity:1;paint-order:normal"
       id="path1998"
       cx="62.584713"
       cy="116.49233"
       r="5.1971726" />
    <ellipse
       style="opacity:1;fill:none;fill-opacity:1;stroke:#000000;stroke-width:1.11800003;stroke-linecap:round;stroke-linejoin:miter;stroke-miterlimit:4;stroke-dasharray:none;stroke-dashoffset:0;stroke-opacity:1;paint-order:normal"
       id="path2000"
       cx="-58.293583"
       cy="83.270653"
       rx="10.999288"
       ry="3.955842"
       transform="rotate(-45)" />
    <path
       style="opacity:1;fill:#ff0000;fill-opacity:1;stroke:none;stroke-width:1.05697608;stroke-linecap:round;stroke-linejoin:miter;stroke-miterlimit:4;stroke-dasharray:none;stroke-dashoffset:0;stroke-opacity:1;paint-order:normal"
       id="path2016"
       d="m 126.6944,122.24291 c -2.35859,-1.6501 -4.49577,-3.58456 -6.65436,-5.47672 -2.65803,-2.34992 -5.28998,-4.72899 -7.91487,-7.11569 -0.74612,-0.77058 -1.61326,-1.39318 -2.46225,-2.04191 -0.65065,-0.50565 -1.27299,-1.04541 -1.89217,-1.58808 -2.28652,-2.00438 0.89927,-5.609 3.18578,-3.60466 v 0 c 0.55481,0.48638 1.11177,0.97093 1.69369,1.42545 0.93435,0.71576 1.8849,1.40977 2.71289,2.25109 2.60753,2.37125 5.22236,4.73455 7.86283,7.06924 2.04382,1.79186 4.06462,3.62782 6.29328,5.1963 2.51258,1.72269 -0.31227,5.60767 -2.82486,3.88496 z"
       inkscape:connector-curvature="0" />
    <path
       style="opacity:1;fill:#ff0000;fill-opacity:1;stroke:none;stroke-width:0.95847774;stroke-linecap:round;stroke-linejoin:miter;stroke-miterlimit:4;stroke-dasharray:none;stroke-dashoffset:0;stroke-opacity:1;paint-order:normal"
       id="path2018"
       d="m 101.64719,100.35843 c -0.31583,-0.428889 -0.65213,-0.905236 -0.79421,-1.383772 -0.0789,-0.265563 -0.11531,-0.529087 -0.17937,-0.79411 -0.007,-0.0292 0.003,0.05659 0.008,0.08573 0.0125,0.06825 0.0299,0.13713 0.0449,0.205623 0.63472,1.063113 1.50594,2.610547 -0.10677,-0.555188 -0.0288,-0.05645 0.0171,0.114516 0.015,0.168852 -6.3e-4,0.02492 -0.0147,-0.05289 -0.0186,-0.07897 -0.0662,-0.435712 -0.0526,-0.319591 -0.0618,-0.687018 0.0331,-0.187465 0.0661,-0.374937 0.0992,-0.562383 0.84489,-2.454911 4.95326,-0.155444 4.10838,2.299449 v 0 c 0.0236,-0.160113 0.0473,-0.3202 0.071,-0.480295 -0.008,-0.07374 -0.0574,-0.298875 -0.0403,-0.223884 0.009,0.04017 0.14836,0.657278 0.0988,0.575274 -0.31969,-0.529152 -0.73052,-1.080819 -0.81488,-1.627486 -0.0659,-0.42713 0.50323,0.825656 0.75485,1.238475 0.0234,0.09749 0.051,0.195338 0.0701,0.292452 0.0159,0.08092 0.0678,0.321951 0.0347,0.240989 -0.22898,-0.561384 -0.0184,-0.388289 -0.26691,-0.669907 -0.008,-0.0085 0.008,0.02125 0.0124,0.03183 2.1328,2.611264 -0.90181,4.535654 -3.03458,1.924384 z"
       inkscape:connector-curvature="0" />
    <path
       inkscape:connector-curvature="0"
       d="m 110.90464,141.12242 c -2.35859,-1.6501 -4.49576,-3.58455 -6.65434,-5.47671 -2.65803,-2.34994 -5.289995,-4.729 -7.914888,-7.1157 -0.746108,-0.77058 -1.613248,-1.39318 -2.462236,-2.04191 -0.650662,-0.50565 -1.272999,-1.04542 -1.892169,-1.58808 -2.286528,-2.00438 0.899251,-5.609 3.185778,-3.60466 v 0 c 0.5548,0.48638 1.111773,0.97092 1.693689,1.42545 0.934353,0.71575 1.884893,1.40977 2.712892,2.25109 2.607514,2.37124 5.222364,4.73455 7.862824,7.06924 2.04383,1.79186 4.06462,3.62782 6.29328,5.1963 2.51258,1.72269 -0.31226,5.60767 -2.82486,3.88496 z"
       id="path2020"
       style="opacity:1;fill:#ff0000;fill-opacity:1;stroke:none;stroke-width:1.05697608;stroke-linecap:round;stroke-linejoin:miter;stroke-miterlimit:4;stroke-dasharray:none;stroke-dashoffset:0;stroke-opacity:1;paint-order:normal" />
    <path
       inkscape:connector-curvature="0"
       d="m 85.316808,119.83007 c -0.315828,-0.42889 -0.652126,-0.90524 -0.79421,-1.38377 -0.07884,-0.26557 -0.115302,-0.52909 -0.17936,-0.79411 -0.007,-0.0292 0.0029,0.0567 0.0082,0.0857 0.01245,0.0682 0.02991,0.13713 0.04488,0.20562 0.634719,1.06312 1.505948,2.61055 -0.106775,-0.55518 -0.02875,-0.0565 0.01714,0.11452 0.01496,0.16885 -6.31e-4,0.0249 -0.01473,-0.0528 -0.01865,-0.0789 -0.06616,-0.43571 -0.05261,-0.31959 -0.06176,-0.68702 0.03307,-0.18747 0.06613,-0.37492 0.0992,-0.56238 0.844893,-2.45491 4.953257,-0.15544 4.108376,2.29945 v 0 c 0.0236,-0.16011 0.0473,-0.3202 0.071,-0.48029 -0.0079,-0.0738 -0.05737,-0.29887 -0.04027,-0.22389 0.0092,0.0402 0.148362,0.65728 0.09882,0.57528 -0.3197,-0.52916 -0.730523,-1.08082 -0.814887,-1.62748 -0.06592,-0.42714 0.50323,0.82565 0.754852,1.23847 0.02339,0.0975 0.05099,0.19534 0.07005,0.29245 0.01591,0.0809 0.06776,0.32195 0.03474,0.24099 -0.228986,-0.56139 -0.01843,-0.38829 -0.266917,-0.66991 -0.0083,-0.009 0.0083,0.0212 0.0124,0.0318 2.132798,2.61126 -0.901798,4.53566 -3.034584,1.92439 z"
       id="path2022"
       style="opacity:1;fill:#ff0000;fill-opacity:1;stroke:none;stroke-width:0.95847774;stroke-linecap:round;stroke-linejoin:miter;stroke-miterlimit:4;stroke-dasharray:none;stroke-dashoffset:0;stroke-opacity:1;paint-order:normal" />
    <path
       style="opacity:1;fill:#ff0000;fill-opacity:1;stroke:none;stroke-width:1.05697608;stroke-linecap:round;stroke-linejoin:miter;stroke-miterlimit:4;stroke-dasharray:none;stroke-dashoffset:0;stroke-opacity:1;paint-order:normal"
       id="path2024"
       d="m 118.42193,131.69984 c -2.35859,-1.65011 -4.49576,-3.58456 -6.65434,-5.47672 -2.65803,-2.34993 -5.29,-4.729 -7.91489,-7.11569 -0.7461,-0.77059 -1.61324,-1.39318 -2.46223,-2.04192 -0.65066,-0.50565 -1.27301,-1.04541 -1.892174,-1.58808 -2.286529,-2.00437 0.899254,-5.609 3.185784,-3.60466 v 0 c 0.5548,0.48638 1.11177,0.97094 1.69368,1.42546 0.93436,0.71575 1.8849,1.40976 2.71288,2.25108 2.60753,2.37126 5.22238,4.73456 7.86283,7.06925 2.04384,1.79185 4.06463,3.62782 6.29328,5.1963 2.51259,1.72268 -0.31225,5.60766 -2.82486,3.88496 z"
       inkscape:connector-curvature="0" />
    <path
       style="opacity:1;fill:#ff0000;fill-opacity:1;stroke:none;stroke-width:0.95847774;stroke-linecap:round;stroke-linejoin:miter;stroke-miterlimit:4;stroke-dasharray:none;stroke-dashoffset:0;stroke-opacity:1;paint-order:normal"
       id="path2026"
       d="m 93.374732,109.81535 c -0.315828,-0.42889 -0.652135,-0.90524 -0.794209,-1.38377 -0.07885,-0.26557 -0.115312,-0.52909 -0.17937,-0.79411 -0.007,-0.0292 0.0029,0.0567 0.0082,0.0857 0.01245,0.0682 0.02991,0.13713 0.04488,0.20563 0.634719,1.06311 1.505949,2.61054 -0.106774,-0.55519 -0.02876,-0.0564 0.01714,0.11452 0.01496,0.16885 -6.32e-4,0.0249 -0.0147,-0.0529 -0.01863,-0.079 -0.06616,-0.43571 -0.05262,-0.31959 -0.06177,-0.68702 0.03309,-0.18746 0.06618,-0.37491 0.09918,-0.56238 0.844886,-2.45492 4.953253,-0.15545 4.108372,2.29945 v 0 c 0.0236,-0.16012 0.0473,-0.3202 0.071,-0.4803 -0.0079,-0.0737 -0.05737,-0.29887 -0.04018,-0.22386 0.0092,0.0402 0.148362,0.65728 0.09882,0.57528 -0.3197,-0.52916 -0.730523,-1.08082 -0.814877,-1.62748 -0.06592,-0.42714 0.503221,0.82565 0.754842,1.23847 0.02339,0.0975 0.05099,0.19534 0.07005,0.29245 0.01591,0.0809 0.06776,0.32195 0.03474,0.241 -0.228983,-0.5614 -0.01843,-0.3883 -0.266905,-0.66992 -0.0083,-0.009 0.0083,0.0212 0.0124,0.0318 2.132798,2.61126 -0.901798,4.53566 -3.034584,1.92439 z"
       inkscape:connector-curvature="0" />
    <flowRoot
       xml:space="preserve"
       id="flowRoot2028"
       style="font-style:normal;font-variant:normal;font-weight:normal;font-stretch:normal;font-size:10.66666698px;line-height:1.25;font-family:'Noto Sans SC';-inkscape-font-specification:'Noto Sans SC, Normal';font-variant-ligatures:normal;font-variant-caps:normal;font-variant-numeric:normal;font-feature-settings:normal;text-align:start;letter-spacing:0px;word-spacing:0px;writing-mode:lr-tb;text-anchor:start;fill:#000000;fill-opacity:1;stroke:none"
       transform="matrix(0.39589186,0,0,0.39589186,-51.522928,55.620718)"><flowRegion
         id="flowRegion2030"><rect
           id="rect2032"
           width="730"
           height="72.85714"
           x="305.71429"
           y="252.27223" /></flowRegion><flowPara
         id="flowPara2034"
         style="font-size:26.66666794px">从2月8日（<flowSpan
   style="font-style:normal;font-variant:normal;font-weight:normal;font-stretch:normal;font-family:'Noto Serif SC';-inkscape-font-specification:'Noto Serif SC'"
   id="flowSpan2036">大年初四</flowSpan>）起</flowPara></flowRoot>    <flowRoot
       xml:space="preserve"
       id="flowRoot2038"
       style="fill:black;fill-opacity:1;stroke:none;font-family:'Noto Sans SC';font-style:normal;font-weight:normal;font-size:10.66666667px;line-height:1.25;letter-spacing:0px;word-spacing:0px;-inkscape-font-specification:'Noto Sans SC';font-stretch:normal;font-variant:normal;writing-mode:lr;text-anchor:start;text-align:start;font-variant-ligatures:normal;font-variant-caps:normal;font-variant-numeric:normal;font-feature-settings:normal;"><flowRegion
         id="flowRegion2040"
         style="-inkscape-font-specification:'Noto Sans SC';font-family:'Noto Sans SC';font-weight:normal;font-style:normal;font-stretch:normal;font-variant:normal;font-size:10.66666667px;text-anchor:start;text-align:start;writing-mode:lr;font-variant-ligatures:normal;font-variant-caps:normal;font-variant-numeric:normal;font-feature-settings:normal;"><rect
           id="rect2042"
           width="917.21851"
           height="206.07112"
           x="135.36044"
           y="324.99002"
           style="-inkscape-font-specification:'Noto Sans SC';font-family:'Noto Sans SC';font-weight:normal;font-style:normal;font-stretch:normal;font-variant:normal;font-size:10.66666667px;text-anchor:start;text-align:start;writing-mode:lr;font-variant-ligatures:normal;font-variant-caps:normal;font-variant-numeric:normal;font-feature-settings:normal;" /></flowRegion><flowPara
         id="flowPara2046"></flowPara></flowRoot>    <flowRoot
       xml:space="preserve"
       id="flowRoot2048"
       style="font-style:normal;font-variant:normal;font-weight:normal;font-stretch:normal;font-size:10.66666698px;line-height:1.25;font-family:'Noto Sans SC';-inkscape-font-specification:'Noto Sans SC, Normal';font-variant-ligatures:normal;font-variant-caps:normal;font-variant-numeric:normal;font-feature-settings:normal;text-align:start;letter-spacing:0px;word-spacing:0px;writing-mode:lr-tb;text-anchor:start;fill:#000000;fill-opacity:1;stroke:none"
       transform="matrix(2.5520472,0,0,2.5520472,-437.15396,-636.36907)"><flowRegion
         id="flowRegion2050"><rect
           id="rect2052"
           width="868.32703"
           height="363.45291"
           x="197.9899"
           y="314.28241" /></flowRegion><flowPara
         id="flowPara2054">距离高考还有</flowPara></flowRoot>    <path
       style="opacity:1;fill:#000000;fill-opacity:1;stroke:none;stroke-width:0.80825341;stroke-linecap:round;stroke-linejoin:miter;stroke-miterlimit:4;stroke-dasharray:none;stroke-dashoffset:0;stroke-opacity:1;paint-order:normal"
       id="path2142"
       d="m 170.87328,206.95582 c 0.72425,0.12661 1.46301,0.13893 2.19609,0.16166 1.56797,0.0332 3.13647,0.0299 4.70472,0.031 1.99617,-0.0187 3.99377,0.0386 5.98902,-0.0322 1.60886,-0.0743 3.20727,-0.28097 4.81333,-0.39922 1.16145,-0.0799 2.3256,-0.10314 3.4894,-0.11268 0.79921,-0.004 1.59842,-0.002 2.39763,-3.7e-4 0.40327,5.7e-4 0.20394,3.7e-4 0.598,7.2e-4 3.44302,0.004 3.43649,4.87379 -0.007,4.86917 v 0 c -0.39557,-5.7e-4 -0.19557,-1.9e-4 -0.6,-7.2e-4 -0.78323,-0.001 -1.56648,-0.004 -2.34971,3.8e-4 -1.05819,0.008 -2.11671,0.0283 -3.17283,0.0998 -1.66963,0.12178 -3.33093,0.34307 -5.00429,0.40945 -2.05169,0.0669 -4.10496,0.0221 -6.1575,0.035 -1.61836,-0.001 -3.23697,0.002 -4.85503,-0.0335 -1.00204,-0.0322 -2.01005,-0.0631 -2.99722,-0.25379 -3.37616,-0.67523 -2.42124,-5.44985 0.95493,-4.77462 z"
       inkscape:connector-curvature="0" />
    <path
       style="opacity:1;fill:#000000;fill-opacity:1;stroke:none;stroke-width:0.80825341;stroke-linecap:round;stroke-linejoin:miter;stroke-miterlimit:4;stroke-dasharray:none;stroke-dashoffset:0;stroke-opacity:1;paint-order:normal"
       id="path2146"
       d="m 165.68873,220.46717 c 0.87806,0.13047 1.76843,0.15142 2.65441,0.17552 2.04828,0.0599 4.09535,0.0182 6.13951,-0.1183 1.78521,-0.14778 3.5487,-0.45801 5.30943,-0.77596 1.59764,-0.28253 3.2184,-0.36531 4.83702,-0.4114 1.42944,-0.0288 2.85926,-0.0243 4.2889,-0.0224 1.20483,0.002 2.40967,0.004 3.6145,0.004 0.83029,-0.0375 1.64616,-0.1871 2.46543,-0.31451 0.92839,-0.14177 1.86601,-0.19283 2.80369,-0.21733 0.75811,-0.0145 1.5164,-0.0122 2.27461,-0.0112 0.33989,5.8e-4 0.22131,0.0379 0.37252,-0.0183 3.42458,-0.3559 3.92791,4.48719 0.50332,4.8431 v 0 c -0.66861,0.0533 -0.37418,0.0452 -0.88252,0.0443 -0.71471,-7.2e-4 -1.42949,-0.004 -2.14412,0.01 -0.72889,0.0179 -1.45796,0.053 -2.17999,0.16118 -1.06718,0.16561 -2.13327,0.35013 -3.21635,0.37222 -1.20578,-7.2e-4 -2.41156,-0.002 -3.61734,-0.004 -1.382,-0.001 -2.76417,-0.007 -4.14598,0.0205 -1.37434,0.0379 -2.75116,0.0998 -4.10843,0.33582 -1.94102,0.3505 -3.88631,0.68632 -5.85484,0.84294 -2.19561,0.14271 -4.3942,0.19298 -6.5941,0.12696 -1.10899,-0.0312 -2.22251,-0.0658 -3.32016,-0.23991 -3.39618,-0.56603 -2.59569,-5.36897 0.80049,-4.80293 z"
       inkscape:connector-curvature="0" />
    <path
       style="opacity:1;fill:#000000;fill-opacity:1;stroke:none;stroke-width:0.80825341;stroke-linecap:round;stroke-linejoin:miter;stroke-miterlimit:4;stroke-dasharray:none;stroke-dashoffset:0;stroke-opacity:1;paint-order:normal"
       id="path2148"
       d="m 184.8408,210.45723 c 0.18991,1.45231 0.20947,2.92102 0.24031,4.38345 0.10826,2.15711 -0.19548,4.29234 -0.60281,6.40334 -0.3699,1.74519 -0.86053,3.46045 -1.45382,5.14208 -0.4652,1.28279 -1.00126,2.53851 -1.53131,3.7954 -0.42642,1.08582 -0.8553,2.17336 -1.37858,3.21664 -0.53228,1.00979 -1.19617,1.94397 -1.8968,2.8426 -0.57164,0.76992 -1.18568,1.50653 -1.78883,2.2516 -0.65701,0.81958 -1.3748,1.58678 -2.10145,2.34424 -0.73737,0.81118 -1.61717,1.46003 -2.51444,2.07986 -0.69015,0.48764 -1.41688,0.90979 -2.16309,1.30399 -3.04438,1.60817 -5.31869,-2.69722 -2.27431,-4.3054 v 0 c 0.57648,-0.30451 1.14026,-0.62312 1.67078,-1.00541 0.62814,-0.4335 1.25814,-0.86873 1.76805,-1.44464 0.63221,-0.6584 1.25875,-1.32354 1.82998,-2.03641 0.58659,-0.72452 1.18401,-1.44054 1.73948,-2.18959 0.51071,-0.64853 0.99605,-1.32333 1.39104,-2.04919 0.48671,-0.93224 0.83076,-1.93422 1.23315,-2.90395 0.49467,-1.16728 0.99019,-2.33561 1.4268,-3.52613 0.51758,-1.45268 0.93661,-2.9373 1.2636,-4.44462 0.34708,-1.77089 0.6137,-3.56114 0.51445,-5.37237 -0.0256,-1.22904 -0.0425,-2.46184 -0.17512,-3.68501 -0.56603,-3.39618 4.23689,-4.19667 4.80292,-0.80048 z"
       inkscape:connector-curvature="0" />
    <path
       style="opacity:1;fill:#000000;fill-opacity:1;stroke:none;stroke-width:0.80825341;stroke-linecap:round;stroke-linejoin:miter;stroke-miterlimit:4;stroke-dasharray:none;stroke-dashoffset:0;stroke-opacity:1;paint-order:normal"
       id="path2152"
       d="m 183.35547,221.47718 c 0.61978,0.68823 1.16336,1.43447 1.70871,2.18164 0.54297,0.66944 0.94556,1.43301 1.45597,2.12542 0.41811,0.63059 1.00116,1.09818 1.5621,1.59525 0.792,0.70895 1.42685,1.56277 2.11085,2.37017 0.63222,0.80263 1.29348,1.58109 1.98072,2.33694 0.63224,0.66783 1.27359,1.32439 1.87954,2.01651 0.49992,0.61254 1.06499,1.16551 1.67798,1.66392 0.5202,0.36776 1.03707,0.74565 1.59971,1.04696 0.77629,0.33439 1.50841,0.75477 2.19752,1.2432 0.3886,0.22979 0.75186,0.59984 1.20599,0.69781 0.59086,0.19899 1.16374,0.44615 1.74954,0.65877 0.068,0.0203 0.1361,0.0407 0.20416,0.0611 3.28527,1.03027 1.82824,5.67635 -1.45703,4.64608 v 0 c -0.14221,-0.0456 -0.28442,-0.0912 -0.42664,-0.13678 -0.55964,-0.20729 -1.10944,-0.43896 -1.67426,-0.63181 -0.88432,-0.32761 -1.70109,-0.78482 -2.45694,-1.35089 -0.52026,-0.39528 -1.12677,-0.64095 -1.70933,-0.93229 -0.8154,-0.46124 -1.59616,-0.98085 -2.33885,-1.55233 -0.80486,-0.6739 -1.57127,-1.39383 -2.23703,-2.20819 -0.58511,-0.66983 -1.2121,-1.29817 -1.81881,-1.94835 -0.7251,-0.79911 -1.42805,-1.61791 -2.09455,-2.46683 -0.53236,-0.63067 -1.02498,-1.29777 -1.62231,-1.87008 -0.82037,-0.7273 -1.64139,-1.45916 -2.26611,-2.36952 -0.50501,-0.69702 -0.92673,-1.44539 -1.45541,-2.12465 -0.50344,-0.68996 -1.00155,-1.37757 -1.57771,-2.01025 -2.15085,-2.68855 1.65134,-5.73031 3.80219,-3.04175 z"
       inkscape:connector-curvature="0" />
    <flowRoot
       xml:space="preserve"
       id="flowRoot2154"
       style="font-style:normal;font-variant:normal;font-weight:normal;font-stretch:normal;font-size:10.66666698px;line-height:1.25;font-family:'Noto Sans SC';-inkscape-font-specification:'Noto Sans SC, Normal';font-variant-ligatures:normal;font-variant-caps:normal;font-variant-numeric:normal;font-feature-settings:normal;text-align:start;letter-spacing:0px;word-spacing:0px;writing-mode:lr-tb;text-anchor:start;fill:#000000;fill-opacity:1;stroke:none"
       transform="matrix(0.26458333,0,0,0.26458333,38.099995,67.420816)"><flowRegion
         id="flowRegion2156"><rect
           id="rect2158"
           width="472.34732"
           height="223.44574"
           x="142.83557"
           y="471.2601" /></flowRegion><flowPara
         id="flowPara2160"
         style="font-size:192px">119</flowPara></flowRoot>    <path
       style="opacity:1;fill:#000000;fill-opacity:1;stroke:none;stroke-width:1.11800003;stroke-linecap:round;stroke-linejoin:miter;stroke-miterlimit:4;stroke-dasharray:none;stroke-dashoffset:0;stroke-opacity:1;paint-order:normal"
       id="path2164"
       d="m 221.19166,207.55944 c 0,2.19793 0,4.39586 0,6.59378 0,2.86558 0,5.73116 0,8.59674 0,1.45465 0,2.9093 0,4.36395 0.0279,0.84968 -0.10747,1.69118 -0.20906,2.53177 -0.0304,0.25582 -0.0398,0.51328 -0.0482,0.77053 -0.11573,3.3656 -4.87542,3.20193 -4.75968,-0.16368 v 0 c 0.0141,-0.3942 0.0322,-0.78852 0.08,-1.18038 0.0791,-0.65033 0.19681,-1.301 0.1744,-1.95824 0,-1.45465 0,-2.9093 0,-4.36395 0,-2.86558 0,-5.73116 0,-8.59674 0,-2.19792 0,-4.39585 0,-6.59378 0,-3.36759 4.7625,-3.36759 4.7625,0 z"
       inkscape:connector-curvature="0" />
    <path
       style="opacity:1;fill:#000000;fill-opacity:1;stroke:none;stroke-width:1.11800003;stroke-linecap:round;stroke-linejoin:miter;stroke-miterlimit:4;stroke-dasharray:none;stroke-dashoffset:0;stroke-opacity:1;paint-order:normal"
       id="path2166"
       d="m 216.38499,240.12918 c -0.28422,0.0308 0.0254,-0.0394 0.15211,-0.0917 3.03705,-1.45501 5.09475,2.84002 2.0577,4.29503 v 0 c -0.41916,0.18647 -0.82569,0.36337 -1.27581,0.46668 -3.3022,0.66045 -4.2362,-4.00957 -0.934,-4.67001 z"
       inkscape:connector-curvature="0"
       inkscape:export-xdpi="135.7"
       inkscape:export-ydpi="135.7" />
  </g>
</svg>
